<?xml version="1.0" encoding="utf-8" ?>
<!DOCTYPE svg PUBLIC "-//W3C//DTD SVG 1.1//EN" "http://www.w3.org/Graphics/SVG/1.1/DTD/svg11.dtd">
<svg height="512" version="1.1" width="944" xmlns="http://www.w3.org/2000/svg">
<rect fill="#ffffff" height="22" stroke="#ffffff" stroke-width="1" width="687" x="182" y="14"/>
<rect fill="none" height="21" stroke="#000000" stroke-width="1" width="686" x="182" y="14"/>
<text font-family="Dialog" font-size="12" x="186" y="29">
QSigillum core</text>
<rect fill="#ffffff" height="371" stroke="#ffffff" stroke-width="1" width="736" x="182" y="35"/>
<rect fill="none" height="370" stroke="#000000" stroke-width="1" width="735" x="182" y="35"/>
<rect fill="#ffffff" height="72" stroke="#ffffff" stroke-width="1" width="104" x="198" y="62"/>
<rect fill="#ffffff" height="0" stroke="#ffffff" stroke-width="1" width="104" x="198" y="62"/>
<rect fill="none" height="0" stroke="#000000" stroke-width="1" width="104" x="198" y="62"/>
<rect fill="#ffffff" height="22" stroke="#ffffff" stroke-width="1" width="104" x="198" y="62"/>
<text font-family="Dialog" font-size="12" x="222" y="77">
UserForm</text>
<rect fill="#ffffff" height="26" stroke="#ffffff" stroke-width="1" width="104" x="198" y="107"/>
<line fill="#000000" stroke="#000000" stroke-width="1" x1="198" x2="301" y1="107" y2="107"/>
<rect fill="#ffffff" height="23" stroke="#ffffff" stroke-width="1" width="104" x="198" y="84"/>
<line fill="#000000" stroke="#000000" stroke-width="1" x1="198" x2="301" y1="84" y2="84"/>
<rect fill="none" height="72" stroke="#000000" stroke-width="1" width="104" x="198" y="62"/>
<rect fill="#ffffff" height="72" stroke="#ffffff" stroke-width="1" width="112" x="782" y="62"/>
<rect fill="#ffffff" height="0" stroke="#ffffff" stroke-width="1" width="112" x="782" y="62"/>
<rect fill="none" height="0" stroke="#000000" stroke-width="1" width="112" x="782" y="62"/>
<rect fill="#ffffff" height="22" stroke="#ffffff" stroke-width="1" width="112" x="782" y="62"/>
<text font-family="Dialog" font-size="12" x="806" y="77">
EditorForm</text>
<rect fill="#ffffff" height="26" stroke="#ffffff" stroke-width="1" width="112" x="782" y="107"/>
<line fill="#000000" stroke="#000000" stroke-width="1" x1="782" x2="893" y1="107" y2="107"/>
<rect fill="#ffffff" height="23" stroke="#ffffff" stroke-width="1" width="112" x="782" y="84"/>
<line fill="#000000" stroke="#000000" stroke-width="1" x1="782" x2="893" y1="84" y2="84"/>
<rect fill="none" height="72" stroke="#000000" stroke-width="1" width="112" x="782" y="62"/>
<rect fill="#ffffff" height="64" stroke="#ffffff" stroke-width="1" width="104" x="198" y="310"/>
<rect fill="#ffffff" height="17" stroke="#ffffff" stroke-width="1" width="104" x="198" y="310"/>
<rect fill="none" height="17" stroke="#000000" stroke-width="1" width="104" x="198" y="310"/>
<rect fill="#ffffff" height="15" stroke="#ffffff" stroke-width="1" width="102" x="199" y="311"/>
<text font-family="Dialog" font-size="12" x="205" y="326">
&lt;&lt;interface&gt;&gt;</text>
<rect fill="#ffffff" height="22" stroke="#ffffff" stroke-width="1" width="104" x="198" y="327"/>
<text font-family="Dialog" font-size="12" x="212" y="342">
ImageLoader</text>
<rect fill="#ffffff" height="24" stroke="#ffffff" stroke-width="1" width="104" x="198" y="349"/>
<line fill="#000000" stroke="#000000" stroke-width="1" x1="198" x2="301" y1="349" y2="349"/>
<rect fill="none" height="64" stroke="#000000" stroke-width="1" width="104" x="198" y="310"/>
<rect fill="#ffffff" height="64" stroke="#ffffff" stroke-width="1" width="99" x="654" y="310"/>
<rect fill="#ffffff" height="17" stroke="#ffffff" stroke-width="1" width="99" x="654" y="310"/>
<rect fill="none" height="17" stroke="#000000" stroke-width="1" width="99" x="654" y="310"/>
<rect fill="#ffffff" height="15" stroke="#ffffff" stroke-width="1" width="97" x="655" y="311"/>
<text font-family="Dialog" font-size="12" x="658" y="326">
&lt;&lt;interface&gt;&gt;</text>
<rect fill="#ffffff" height="22" stroke="#ffffff" stroke-width="1" width="99" x="654" y="327"/>
<text font-family="Dialog" font-size="12" x="659" y="342">
OutputExporter</text>
<rect fill="#ffffff" height="24" stroke="#ffffff" stroke-width="1" width="99" x="654" y="349"/>
<line fill="#000000" stroke="#000000" stroke-width="1" x1="654" x2="752" y1="349" y2="349"/>
<rect fill="none" height="64" stroke="#000000" stroke-width="1" width="99" x="654" y="310"/>
<rect fill="#ffffff" height="72" stroke="#ffffff" stroke-width="1" width="112" x="566" y="62"/>
<rect fill="#ffffff" height="0" stroke="#ffffff" stroke-width="1" width="112" x="566" y="62"/>
<rect fill="none" height="0" stroke="#000000" stroke-width="1" width="112" x="566" y="62"/>
<rect fill="#ffffff" height="22" stroke="#ffffff" stroke-width="1" width="112" x="566" y="62"/>
<text font-family="Dialog" font-size="12" x="586" y="77">
Segmentator</text>
<rect fill="#ffffff" height="26" stroke="#ffffff" stroke-width="1" width="112" x="566" y="107"/>
<line fill="#000000" stroke="#000000" stroke-width="1" x1="566" x2="677" y1="107" y2="107"/>
<rect fill="#ffffff" height="23" stroke="#ffffff" stroke-width="1" width="112" x="566" y="84"/>
<line fill="#000000" stroke="#000000" stroke-width="1" x1="566" x2="677" y1="84" y2="84"/>
<rect fill="none" height="72" stroke="#000000" stroke-width="1" width="112" x="566" y="62"/>
<rect fill="#ffffff" height="88" stroke="#ffffff" stroke-width="1" width="142" x="758" y="150"/>
<rect fill="#ffffff" height="0" stroke="#ffffff" stroke-width="1" width="142" x="758" y="150"/>
<rect fill="none" height="0" stroke="#000000" stroke-width="1" width="142" x="758" y="150"/>
<rect fill="#ffffff" height="22" stroke="#ffffff" stroke-width="1" width="142" x="758" y="150"/>
<text font-family="Dialog" font-size="12" x="763" y="165">
SegmentationTemplate</text>
<rect fill="#ffffff" height="34" stroke="#ffffff" stroke-width="1" width="142" x="758" y="203"/>
<line fill="#000000" stroke="#000000" stroke-width="1" x1="758" x2="899" y1="203" y2="203"/>
<rect fill="#ffffff" height="31" stroke="#ffffff" stroke-width="1" width="142" x="758" y="172"/>
<line fill="#000000" stroke="#000000" stroke-width="1" x1="758" x2="899" y1="172" y2="172"/>
<rect fill="none" height="88" stroke="#000000" stroke-width="1" width="142" x="758" y="150"/>
<rect fill="#ffffff" height="80" stroke="#ffffff" stroke-width="1" width="104" x="366" y="62"/>
<rect fill="#ffffff" height="0" stroke="#ffffff" stroke-width="1" width="104" x="366" y="62"/>
<rect fill="none" height="0" stroke="#000000" stroke-width="1" width="104" x="366" y="62"/>
<rect fill="#ffffff" height="22" stroke="#ffffff" stroke-width="1" width="104" x="366" y="62"/>
<text font-family="Dialog" font-size="12" x="380" y="77">
Preprocessor</text>
<rect fill="#ffffff" height="30" stroke="#ffffff" stroke-width="1" width="104" x="366" y="111"/>
<line fill="#000000" stroke="#000000" stroke-width="1" x1="366" x2="469" y1="111" y2="111"/>
<rect fill="#ffffff" height="27" stroke="#ffffff" stroke-width="1" width="104" x="366" y="84"/>
<line fill="#000000" stroke="#000000" stroke-width="1" x1="366" x2="469" y1="84" y2="84"/>
<rect fill="none" height="80" stroke="#000000" stroke-width="1" width="104" x="366" y="62"/>
<rect fill="#ffffff" height="64" stroke="#ffffff" stroke-width="1" width="97" x="374" y="310"/>
<rect fill="#ffffff" height="17" stroke="#ffffff" stroke-width="1" width="97" x="374" y="310"/>
<rect fill="none" height="17" stroke="#000000" stroke-width="1" width="97" x="374" y="310"/>
<rect fill="#ffffff" height="15" stroke="#ffffff" stroke-width="1" width="95" x="375" y="311"/>
<text font-family="Dialog" font-size="12" x="377" y="326">
&lt;&lt;interface&gt;&gt;</text>
<rect fill="#ffffff" height="22" stroke="#ffffff" stroke-width="1" width="97" x="374" y="327"/>
<text font-family="Dialog" font-size="12" x="396" y="342">
Classifier</text>
<rect fill="#ffffff" height="24" stroke="#ffffff" stroke-width="1" width="97" x="374" y="349"/>
<line fill="#000000" stroke="#000000" stroke-width="1" x1="374" x2="470" y1="349" y2="349"/>
<rect fill="none" height="64" stroke="#000000" stroke-width="1" width="97" x="374" y="310"/>
<rect fill="#ffffff" height="72" stroke="#ffffff" stroke-width="1" width="112" x="398" y="190"/>
<rect fill="#ffffff" height="0" stroke="#ffffff" stroke-width="1" width="112" x="398" y="190"/>
<rect fill="none" height="0" stroke="#000000" stroke-width="1" width="112" x="398" y="190"/>
<rect fill="#ffffff" height="22" stroke="#ffffff" stroke-width="1" width="112" x="398" y="190"/>
<text font-family="Dialog" font-size="12" x="413" y="205">
TemplateField</text>
<rect fill="#ffffff" height="26" stroke="#ffffff" stroke-width="1" width="112" x="398" y="235"/>
<line fill="#000000" stroke="#000000" stroke-width="1" x1="398" x2="509" y1="235" y2="235"/>
<rect fill="#ffffff" height="23" stroke="#ffffff" stroke-width="1" width="112" x="398" y="212"/>
<line fill="#000000" stroke="#000000" stroke-width="1" x1="398" x2="509" y1="212" y2="212"/>
<rect fill="none" height="72" stroke="#000000" stroke-width="1" width="112" x="398" y="190"/>
<rect fill="#ffffff" height="68" stroke="#ffffff" stroke-width="1" width="104" x="198" y="182"/>
<rect fill="#ffffff" height="0" stroke="#ffffff" stroke-width="1" width="104" x="198" y="182"/>
<rect fill="none" height="0" stroke="#000000" stroke-width="1" width="104" x="198" y="182"/>
<rect fill="#ffffff" height="22" stroke="#ffffff" stroke-width="1" width="104" x="198" y="182"/>
<text font-family="Dialog" font-size="12" x="222" y="197">
LogicCore</text>
<rect fill="#ffffff" height="24" stroke="#ffffff" stroke-width="1" width="104" x="198" y="225"/>
<line fill="#000000" stroke="#000000" stroke-width="1" x1="198" x2="301" y1="225" y2="225"/>
<rect fill="#ffffff" height="21" stroke="#ffffff" stroke-width="1" width="104" x="198" y="204"/>
<line fill="#000000" stroke="#000000" stroke-width="1" x1="198" x2="301" y1="204" y2="204"/>
<rect fill="none" height="68" stroke="#000000" stroke-width="1" width="104" x="198" y="182"/>
<polyline fill="none" points="246,134 246,182" stroke="#000000" stroke-width="1"/>
<polygon fill="#ffffff" points="246,134 251,144 246,154 241,144" stroke="#ffffff" stroke-width="1"/>
<polygon fill="none" points="246,134 251,144 246,154 241,144" stroke="#000000" stroke-width="1"/>
<polyline fill="none" points="246,250 246,310" stroke="#000000" stroke-width="1"/>
<polyline fill="none" points="270,182 270,158 422,158 422,142" stroke="#000000" stroke-width="1"/>
<polyline fill="none" points="278,250 278,302 422,302 422,310" stroke="#000000" stroke-width="1"/>
<polyline fill="none" points="294,250 294,294 702,294 702,310" stroke="#000000" stroke-width="1"/>
<polyline fill="none" points="286,182 286,166 622,166 622,134" stroke="#000000" stroke-width="1"/>
<polyline fill="none" points="838,134 838,150" stroke="#000000" stroke-width="1"/>
<polyline fill="none" points="646,134 646,166 758,166" stroke="#000000" stroke-width="1"/>
<polyline fill="none" points="302,222 398,222" stroke="#000000" stroke-width="1"/>
<rect fill="#ffffff" height="68" stroke="#ffffff" stroke-width="1" width="103" x="38" y="262"/>
<rect fill="#ffffff" height="0" stroke="#ffffff" stroke-width="1" width="103" x="38" y="262"/>
<rect fill="none" height="0" stroke="#000000" stroke-width="1" width="103" x="38" y="262"/>
<rect fill="#ffffff" height="22" stroke="#ffffff" stroke-width="1" width="103" x="38" y="262"/>
<text font-family="Dialog" font-size="12" x="42" y="277">
FileImageLoader</text>
<rect fill="#ffffff" height="24" stroke="#ffffff" stroke-width="1" width="103" x="38" y="305"/>
<line fill="#000000" stroke="#000000" stroke-width="1" x1="38" x2="140" y1="305" y2="305"/>
<rect fill="#ffffff" height="21" stroke="#ffffff" stroke-width="1" width="103" x="38" y="284"/>
<line fill="#000000" stroke="#000000" stroke-width="1" x1="38" x2="140" y1="284" y2="284"/>
<rect fill="none" height="68" stroke="#000000" stroke-width="1" width="103" x="38" y="262"/>
<line fill="#000000" stroke="#000000" stroke-width="1" x1="141" x2="146" y1="310" y2="310"/>
<line fill="#000000" stroke="#000000" stroke-width="1" x1="151" x2="156" y1="310" y2="310"/>
<line fill="#000000" stroke="#000000" stroke-width="1" x1="161" x2="166" y1="310" y2="310"/>
<line fill="#000000" stroke="#000000" stroke-width="1" x1="171" x2="176" y1="310" y2="310"/>
<line fill="#000000" stroke="#000000" stroke-width="1" x1="181" x2="186" y1="310" y2="310"/>
<line fill="#000000" stroke="#000000" stroke-width="1" x1="191" x2="196" y1="310" y2="310"/>
<polygon fill="#ffffff" points="198,310 186,317 186,303" stroke="#ffffff" stroke-width="1"/>
<polygon fill="none" points="198,310 186,317 186,303" stroke="#000000" stroke-width="1"/>
<text font-family="Dialog" font-size="12" x="129" y="302">
&lt;&lt;realize&gt;&gt;</text>
<rect fill="#ffffff" height="68" stroke="#ffffff" stroke-width="1" width="129" x="14" y="358"/>
<rect fill="#ffffff" height="0" stroke="#ffffff" stroke-width="1" width="129" x="14" y="358"/>
<rect fill="none" height="0" stroke="#000000" stroke-width="1" width="129" x="14" y="358"/>
<rect fill="#ffffff" height="22" stroke="#ffffff" stroke-width="1" width="129" x="14" y="358"/>
<text font-family="Dialog" font-size="12" x="18" y="373">
ScannerImageLoader</text>
<rect fill="#ffffff" height="24" stroke="#ffffff" stroke-width="1" width="129" x="14" y="401"/>
<line fill="#000000" stroke="#000000" stroke-width="1" x1="14" x2="142" y1="401" y2="401"/>
<rect fill="#ffffff" height="21" stroke="#ffffff" stroke-width="1" width="129" x="14" y="380"/>
<line fill="#000000" stroke="#000000" stroke-width="1" x1="14" x2="142" y1="380" y2="380"/>
<rect fill="none" height="68" stroke="#000000" stroke-width="1" width="129" x="14" y="358"/>
<line fill="#000000" stroke="#000000" stroke-width="1" x1="143" x2="148" y1="366" y2="366"/>
<line fill="#000000" stroke="#000000" stroke-width="1" x1="153" x2="158" y1="366" y2="366"/>
<line fill="#000000" stroke="#000000" stroke-width="1" x1="163" x2="168" y1="366" y2="366"/>
<line fill="#000000" stroke="#000000" stroke-width="1" x1="173" x2="178" y1="366" y2="366"/>
<line fill="#000000" stroke="#000000" stroke-width="1" x1="183" x2="188" y1="366" y2="366"/>
<line fill="#000000" stroke="#000000" stroke-width="1" x1="193" x2="198" y1="366" y2="366"/>
<polygon fill="#ffffff" points="198,366 186,373 186,359" stroke="#ffffff" stroke-width="1"/>
<polygon fill="none" points="198,366 186,373 186,359" stroke="#000000" stroke-width="1"/>
<text font-family="Dialog" font-size="12" x="130" y="356">
&lt;&lt;realize&gt;&gt;</text>
<rect fill="#ffffff" height="68" stroke="#ffffff" stroke-width="1" width="106" x="374" y="430"/>
<rect fill="#ffffff" height="0" stroke="#ffffff" stroke-width="1" width="106" x="374" y="430"/>
<rect fill="none" height="0" stroke="#000000" stroke-width="1" width="106" x="374" y="430"/>
<rect fill="#ffffff" height="22" stroke="#ffffff" stroke-width="1" width="106" x="374" y="430"/>
<text font-family="Dialog" font-size="12" x="388" y="445">
ANNClassifier</text>
<rect fill="#ffffff" height="24" stroke="#ffffff" stroke-width="1" width="106" x="374" y="473"/>
<line fill="#000000" stroke="#000000" stroke-width="1" x1="374" x2="479" y1="473" y2="473"/>
<rect fill="#ffffff" height="21" stroke="#ffffff" stroke-width="1" width="106" x="374" y="452"/>
<line fill="#000000" stroke="#000000" stroke-width="1" x1="374" x2="479" y1="452" y2="452"/>
<rect fill="none" height="68" stroke="#000000" stroke-width="1" width="106" x="374" y="430"/>
<line fill="#000000" stroke="#000000" stroke-width="1" x1="422" x2="422" y1="430" y2="425"/>
<line fill="#000000" stroke="#000000" stroke-width="1" x1="422" x2="422" y1="420" y2="415"/>
<line fill="#000000" stroke="#000000" stroke-width="1" x1="422" x2="422" y1="410" y2="405"/>
<line fill="#000000" stroke="#000000" stroke-width="1" x1="422" x2="422" y1="400" y2="395"/>
<line fill="#000000" stroke="#000000" stroke-width="1" x1="422" x2="422" y1="390" y2="385"/>
<line fill="#000000" stroke="#000000" stroke-width="1" x1="422" x2="422" y1="380" y2="375"/>
<polygon fill="#ffffff" points="422,374 429,386 415,386" stroke="#ffffff" stroke-width="1"/>
<polygon fill="none" points="422,374 429,386 415,386" stroke="#000000" stroke-width="1"/>
<text font-family="Dialog" font-size="12" x="335" y="417">
&lt;&lt;realize&gt;&gt;</text>
<rect fill="#ffffff" height="68" stroke="#ffffff" stroke-width="1" width="104" x="566" y="430"/>
<rect fill="#ffffff" height="0" stroke="#ffffff" stroke-width="1" width="104" x="566" y="430"/>
<rect fill="none" height="0" stroke="#000000" stroke-width="1" width="104" x="566" y="430"/>
<rect fill="#ffffff" height="22" stroke="#ffffff" stroke-width="1" width="104" x="566" y="430"/>
<text font-family="Dialog" font-size="12" x="570" y="445">
TextFileExporter</text>
<rect fill="#ffffff" height="24" stroke="#ffffff" stroke-width="1" width="104" x="566" y="473"/>
<line fill="#000000" stroke="#000000" stroke-width="1" x1="566" x2="669" y1="473" y2="473"/>
<rect fill="#ffffff" height="21" stroke="#ffffff" stroke-width="1" width="104" x="566" y="452"/>
<line fill="#000000" stroke="#000000" stroke-width="1" x1="566" x2="669" y1="452" y2="452"/>
<rect fill="none" height="68" stroke="#000000" stroke-width="1" width="104" x="566" y="430"/>
<line fill="#000000" stroke="#000000" stroke-width="1" x1="622" x2="622" y1="430" y2="425"/>
<line fill="#000000" stroke="#000000" stroke-width="1" x1="622" x2="622" y1="420" y2="415"/>
<line fill="#000000" stroke="#000000" stroke-width="1" x1="622" x2="627" y1="414" y2="414"/>
<line fill="#000000" stroke="#000000" stroke-width="1" x1="632" x2="637" y1="414" y2="414"/>
<line fill="#000000" stroke="#000000" stroke-width="1" x1="642" x2="647" y1="414" y2="414"/>
<line fill="#000000" stroke="#000000" stroke-width="1" x1="652" x2="657" y1="414" y2="414"/>
<line fill="#000000" stroke="#000000" stroke-width="1" x1="662" x2="667" y1="414" y2="414"/>
<line fill="#000000" stroke="#000000" stroke-width="1" x1="670" x2="670" y1="414" y2="409"/>
<line fill="#000000" stroke="#000000" stroke-width="1" x1="670" x2="670" y1="404" y2="399"/>
<line fill="#000000" stroke="#000000" stroke-width="1" x1="670" x2="670" y1="394" y2="389"/>
<line fill="#000000" stroke="#000000" stroke-width="1" x1="670" x2="670" y1="384" y2="379"/>
<polygon fill="#ffffff" points="670,374 677,386 663,386" stroke="#ffffff" stroke-width="1"/>
<polygon fill="none" points="670,374 677,386 663,386" stroke="#000000" stroke-width="1"/>
<text font-family="Dialog" font-size="12" x="604" y="372">
&lt;&lt;realize&gt;&gt;</text>
<rect fill="#ffffff" height="68" stroke="#ffffff" stroke-width="1" width="115" x="734" y="430"/>
<rect fill="#ffffff" height="0" stroke="#ffffff" stroke-width="1" width="115" x="734" y="430"/>
<rect fill="none" height="0" stroke="#000000" stroke-width="1" width="115" x="734" y="430"/>
<rect fill="#ffffff" height="22" stroke="#ffffff" stroke-width="1" width="115" x="734" y="430"/>
<text font-family="Dialog" font-size="12" x="739" y="445">
SQLQueryExporter</text>
<rect fill="#ffffff" height="24" stroke="#ffffff" stroke-width="1" width="115" x="734" y="473"/>
<line fill="#000000" stroke="#000000" stroke-width="1" x1="734" x2="848" y1="473" y2="473"/>
<rect fill="#ffffff" height="21" stroke="#ffffff" stroke-width="1" width="115" x="734" y="452"/>
<line fill="#000000" stroke="#000000" stroke-width="1" x1="734" x2="848" y1="452" y2="452"/>
<rect fill="none" height="68" stroke="#000000" stroke-width="1" width="115" x="734" y="430"/>
<line fill="#000000" stroke="#000000" stroke-width="1" x1="790" x2="790" y1="430" y2="425"/>
<line fill="#000000" stroke="#000000" stroke-width="1" x1="790" x2="790" y1="420" y2="415"/>
<line fill="#000000" stroke="#000000" stroke-width="1" x1="790" x2="785" y1="414" y2="414"/>
<line fill="#000000" stroke="#000000" stroke-width="1" x1="780" x2="775" y1="414" y2="414"/>
<line fill="#000000" stroke="#000000" stroke-width="1" x1="770" x2="765" y1="414" y2="414"/>
<line fill="#000000" stroke="#000000" stroke-width="1" x1="760" x2="755" y1="414" y2="414"/>
<line fill="#000000" stroke="#000000" stroke-width="1" x1="750" x2="745" y1="414" y2="414"/>
<line fill="#000000" stroke="#000000" stroke-width="1" x1="740" x2="735" y1="414" y2="414"/>
<line fill="#000000" stroke="#000000" stroke-width="1" x1="730" x2="725" y1="414" y2="414"/>
<line fill="#000000" stroke="#000000" stroke-width="1" x1="720" x2="718" y1="414" y2="414"/>
<line fill="#000000" stroke="#000000" stroke-width="1" x1="718" x2="718" y1="414" y2="409"/>
<line fill="#000000" stroke="#000000" stroke-width="1" x1="718" x2="718" y1="404" y2="399"/>
<line fill="#000000" stroke="#000000" stroke-width="1" x1="718" x2="718" y1="394" y2="389"/>
<line fill="#000000" stroke="#000000" stroke-width="1" x1="718" x2="718" y1="384" y2="379"/>
<polygon fill="#ffffff" points="718,374 725,386 711,386" stroke="#ffffff" stroke-width="1"/>
<polygon fill="none" points="718,374 725,386 711,386" stroke="#000000" stroke-width="1"/>
<text font-family="Dialog" font-size="12" x="702" y="372">
&lt;&lt;realize&gt;&gt;</text>
<rect fill="#ffffff" height="68" stroke="#ffffff" stroke-width="1" width="120" x="582" y="214"/>
<rect fill="#ffffff" height="0" stroke="#ffffff" stroke-width="1" width="120" x="582" y="214"/>
<rect fill="none" height="0" stroke="#000000" stroke-width="1" width="120" x="582" y="214"/>
<rect fill="#ffffff" height="22" stroke="#ffffff" stroke-width="1" width="120" x="582" y="214"/>
<text font-family="Dialog" font-size="12" x="587" y="229">
TemplateContainer</text>
<rect fill="#ffffff" height="24" stroke="#ffffff" stroke-width="1" width="120" x="582" y="257"/>
<line fill="#000000" stroke="#000000" stroke-width="1" x1="582" x2="701" y1="257" y2="257"/>
<rect fill="#ffffff" height="21" stroke="#ffffff" stroke-width="1" width="120" x="582" y="236"/>
<line fill="#000000" stroke="#000000" stroke-width="1" x1="582" x2="701" y1="236" y2="236"/>
<rect fill="none" height="68" stroke="#000000" stroke-width="1" width="120" x="582" y="214"/>
<polyline fill="none" points="510,198 758,198" stroke="#000000" stroke-width="1"/>
<polyline fill="none" points="702,222 758,222" stroke="#000000" stroke-width="1"/>
<polyline fill="none" points="510,230 582,230" stroke="#000000" stroke-width="1"/>
</svg>
